<?xml version="1.0" encoding="UTF-8" standalone="no"?>
<!DOCTYPE svg PUBLIC "-//W3C//DTD SVG 1.1//EN"
 "http://www.w3.org/Graphics/SVG/1.1/DTD/svg11.dtd">
<!-- Generated by graphviz version 2.43.0 (0)
 -->
<!-- Title: model Pages: 1 -->
<svg width="364pt" height="208pt"
 viewBox="0.00 0.00 364.00 208.00" xmlns="http://www.w3.org/2000/svg" xmlns:xlink="http://www.w3.org/1999/xlink">
<g id="graph0" class="graph" transform="scale(1 1) rotate(0) translate(4 204)">
<title>model</title>
<polygon fill="white" stroke="transparent" points="-4,4 -4,-204 360,-204 360,4 -4,4"/>
<!-- FlashCard -->
<g id="node1" class="node">
<title>FlashCard</title>
<g id="a_node1"><a xlink:href="javascript:Action.selectClass(&quot;FlashCard&quot;);" xlink:title="class FlashCard&#10;">
<text text-anchor="start" x="146.5" y="-183.3" font-family="Times,serif" font-size="14.00"> &#160;&#160;&#160;FlashCard &#160;&#160;&#160;</text>
<g id="a_node1_0"><a xlink:href="javascript:Action.selectClass(&quot;FlashCard&quot;);" xlink:title="String question&#13;">
<text text-anchor="start" x="105" y="-162.3" font-family="Times,serif" font-size="14.00"> &#160;question : String &#160;</text>
</a>
</g>
<g id="a_node1_1"><a xlink:href="javascript:Action.selectClass(&quot;FlashCard&quot;);" xlink:title="String answer&#13;">
<text text-anchor="start" x="105" y="-143.3" font-family="Times,serif" font-size="14.00"> &#160;answer : String &#160;</text>
</a>
</g>
<g id="a_node1_2"><a xlink:href="javascript:Action.selectClass(&quot;FlashCard&quot;);" xlink:title="String hint&#13;">
<text text-anchor="start" x="105" y="-124.3" font-family="Times,serif" font-size="14.00"> &#160;hint : String &#160;</text>
</a>
</g>
<g id="a_node1_3"><a xlink:href="javascript:Action.selectClass(&quot;FlashCard&quot;);" xlink:title="String[] wrongAnswers&#13;">
<text text-anchor="start" x="105" y="-105.3" font-family="Times,serif" font-size="14.00"> &#160;wrongAnswers : String[] &#160;</text>
</a>
</g>
<polygon fill="black" stroke="black" points="102,-175.5 102,-175.5 301,-175.5 301,-175.5 102,-175.5"/>
<polygon fill="none" stroke="black" points="101.5,-99 101.5,-200 300.5,-200 300.5,-99 101.5,-99"/>
</a>
</g>
</g>
<!-- Quiz -->
<g id="node2" class="node">
<title>Quiz</title>
<g id="a_node2"><a xlink:href="javascript:Action.selectClass(&quot;Quiz&quot;);" xlink:title="class Quiz&#10;">
<text text-anchor="start" x="73.5" y="-46.3" font-family="Times,serif" font-size="14.00"> &#160;&#160;&#160;Quiz &#160;&#160;&#160;</text>
<g id="a_node2_4"><a xlink:href="javascript:Action.selectClass(&quot;Quiz&quot;);" xlink:title="String name&#13;">
<text text-anchor="start" x="3" y="-25.3" font-family="Times,serif" font-size="14.00"> &#160;name : String &#160;</text>
</a>
</g>
<g id="a_node2_5"><a xlink:href="javascript:Action.selectClass(&quot;Quiz&quot;);" xlink:title="int numQuestionsToShow&#13;">
<text text-anchor="start" x="3" y="-6.3" font-family="Times,serif" font-size="14.00"> &#160;numQuestionsToShow : int &#160;</text>
</a>
</g>
<polygon fill="black" stroke="black" points="0,-38.5 0,-38.5 216,-38.5 216,-38.5 0,-38.5"/>
<polygon fill="none" stroke="black" points="0,0 0,-63 216,-63 216,0 0,0"/>
</a>
</g>
</g>
<!-- Quiz&#45;&gt;FlashCard -->
<g id="edge1" class="edge">
<title>Quiz&#45;&gt;FlashCard</title>
<g id="a_edge1"><a xlink:title="Quiz 1 &#160;&lt;@&gt;&#45; * &#160;FlashCard">
<path fill="none" stroke="black" d="M140.31,-72.8C147.01,-81.16 154.15,-90.07 161.09,-98.72"/>
<polygon fill="black" stroke="black" points="140.18,-72.64 133.31,-70.46 132.68,-63.28 139.55,-65.46 140.18,-72.64"/>
</a>
</g>
<text text-anchor="middle" x="155.09" y="-87.52" font-family="Times,serif" font-size="14.00">* </text>
<text text-anchor="middle" x="125.68" y="-67.08" font-family="Times,serif" font-size="14.00">1 </text>
</g>
<!-- Tag -->
<g id="node3" class="node">
<title>Tag</title>
<g id="a_node3"><a xlink:href="javascript:Action.selectClass(&quot;Tag&quot;);" xlink:title="class Tag&#10;">
<text text-anchor="start" x="264" y="-37.3" font-family="Times,serif" font-size="14.00"> &#160;&#160;&#160;Tag &#160;&#160;&#160;</text>
<g id="a_node3_6"><a xlink:href="javascript:Action.selectClass(&quot;Tag&quot;);" xlink:title="String name&#13;">
<text text-anchor="start" x="237" y="-16.3" font-family="Times,serif" font-size="14.00"> &#160;name : String &#160;</text>
</a>
</g>
<polygon fill="black" stroke="black" points="234,-29.5 234,-29.5 356,-29.5 356,-29.5 234,-29.5"/>
<polygon fill="none" stroke="black" points="234,-9.5 234,-53.5 356,-53.5 356,-9.5 234,-9.5"/>
</a>
</g>
</g>
<!-- Tag&#45;&gt;FlashCard -->
<g id="edge2" class="edge">
<title>Tag&#45;&gt;FlashCard</title>
<g id="a_edge2"><a xlink:title="Tag * &#160;&lt;@&gt;&#45; * &#160;FlashCard">
<path fill="none" stroke="black" d="M270.27,-63.02C261.41,-73.96 251.16,-86.6 241.32,-98.74"/>
<polygon fill="black" stroke="black" points="270.42,-62.83 271.09,-55.65 277.98,-53.51 277.31,-60.69 270.42,-62.83"/>
</a>
</g>
<text text-anchor="middle" x="235.32" y="-87.54" font-family="Times,serif" font-size="14.00">* </text>
<text text-anchor="middle" x="271.98" y="-57.31" font-family="Times,serif" font-size="14.00">* </text>
</g>
</g>
</svg>
